<?xml version="1.0" encoding="utf-8"?>
<!-- Generator: Adobe Illustrator 28.3.0, SVG Export Plug-In . SVG Version: 6.00 Build 0)  -->
<svg version="1.1" id="Layer_1" xmlns="http://www.w3.org/2000/svg" xmlns:xlink="http://www.w3.org/1999/xlink" x="0px" y="0px"
	 viewBox="0 0 52.7 52.7" style="enable-background:new 0 0 52.7 52.7;" xml:space="preserve">
<style type="text/css">
	.st0{fill-rule:evenodd;clip-rule:evenodd;fill:url(#SVGID_1_);}
	.st1{fill-rule:evenodd;clip-rule:evenodd;fill:#0A0C00;}
	.st2{fill:url(#SVGID_00000083057978629929781670000000002119222343008922_);}
</style>
<linearGradient id="SVGID_1_" gradientUnits="userSpaceOnUse" x1="4.7349" y1="26.3675" x2="48.0001" y2="26.3675">
	<stop  offset="0" style="stop-color:#FFFFFF"/>
	<stop  offset="1" style="stop-color:#496D94"/>
</linearGradient>
<path class="st0" d="M41.5,48H11.2c-3.6,0-6.5-2.9-6.5-6.5V11.2c0-3.6,2.9-6.5,6.5-6.5h30.3c3.6,0,6.5,2.9,6.5,6.5v30.3
	C48,45.1,45.1,48,41.5,48z"/>
<path class="st1" d="M8.8,8.8v9.3c0,3.6,2,6.7,5,8.2c-3,1.6-5,4.7-5,8.2v9.3h25.8c5.1,0,9.3-4.2,9.3-9.3v-0.5c0-3.3-1.9-6.2-4.6-7.7
	c2.7-1.5,4.6-4.4,4.6-7.7v-0.5c0-5.1-4.2-9.3-9.3-9.3H8.8z M31,26.4c-1.9-1.1-3.4-2.8-4.1-4.9c-0.8,2.1-2.4,3.9-4.4,4.9
	c2,1,3.6,2.8,4.4,4.9C27.5,29.2,29,27.4,31,26.4z"/>
<linearGradient id="SVGID_00000170243907080317311910000011949813224959915397_" gradientUnits="userSpaceOnUse" x1="-106.1532" y1="21.2869" x2="-60.7505" y2="21.2869">
	<stop  offset="0" style="stop-color:#FFFFFF"/>
	<stop  offset="1" style="stop-color:#496D94"/>
</linearGradient>
<path style="fill:url(#SVGID_00000170243907080317311910000011949813224959915397_);" d="M-61,43.7h-44.8c-0.2,0-0.3-0.1-0.3-0.3
	V-0.8c0-0.2,0.1-0.3,0.3-0.3H-61c0.2,0,0.3,0.1,0.3,0.3v44.3C-60.8,43.6-60.9,43.7-61,43.7z"/>
</svg>
