<?xml version="1.0" encoding="utf-8"?>
<!-- Generator: Adobe Illustrator 28.3.0, SVG Export Plug-In . SVG Version: 6.00 Build 0)  -->
<svg version="1.1" id="Layer_1" xmlns="http://www.w3.org/2000/svg" xmlns:xlink="http://www.w3.org/1999/xlink" x="0px" y="0px"
	 viewBox="0 0 53 53" style="enable-background:new 0 0 53 53;" xml:space="preserve">
<style type="text/css">
	.st0{fill-rule:evenodd;clip-rule:evenodd;fill:url(#SVGID_1_);}
	.st1{clip-path:url(#SVGID_00000101066317598239450920000016310442306296164786_);}
	.st2{fill:#FFFFFF;filter:url(#Adobe_OpacityMaskFilter);}
	.st3{mask:url(#mask0_589_6150_00000155147181244279229290000017990303808830915244_);}
	.st4{fill-rule:evenodd;clip-rule:evenodd;fill:#0A0C00;}
</style>
<linearGradient id="SVGID_1_" gradientUnits="userSpaceOnUse" x1="2.7492" y1="26.4751" x2="49.5674" y2="26.4751">
	<stop  offset="0" style="stop-color:#FFFFFF"/>
	<stop  offset="1" style="stop-color:#496D94"/>
</linearGradient>
<rect x="2.7" y="3.1" class="st0" width="46.8" height="46.8"/>
<g>
	<defs>
		<rect id="SVGID_00000011711644574233309470000005524362368636710574_" x="5.7" y="6.5" width="40" height="40"/>
	</defs>
	<clipPath id="SVGID_00000141455604409813064800000014540093081699462812_">
		<use xlink:href="#SVGID_00000011711644574233309470000005524362368636710574_"  style="overflow:visible;"/>
	</clipPath>
	<g style="clip-path:url(#SVGID_00000141455604409813064800000014540093081699462812_);">
		<defs>
			<filter id="Adobe_OpacityMaskFilter" filterUnits="userSpaceOnUse" x="5.7" y="6.5" width="40" height="40">
				<feColorMatrix  type="matrix" values="1 0 0 0 0  0 1 0 0 0  0 0 1 0 0  0 0 0 1 0"/>
			</filter>
		</defs>
		
			<mask maskUnits="userSpaceOnUse" x="5.7" y="6.5" width="40" height="40" id="mask0_589_6150_00000155147181244279229290000017990303808830915244_">
			<path class="st2" d="M45.7,6.5h-40v40h40V6.5z"/>
		</mask>
		<g class="st3">
			<path class="st4" d="M5.7,26.5l0-20h20h20v20c-11,0-20-9-20-20C25.7,17.5,16.7,26.5,5.7,26.5z M25.7,46.5c0-11,9-20,20-20v20
				H25.7z M25.7,46.5c0-11-9-20-20-20v20H25.7z"/>
		</g>
	</g>
</g>
</svg>
