<?xml version="1.0" encoding="utf-8"?>
<!-- Generator: Adobe Illustrator 28.3.0, SVG Export Plug-In . SVG Version: 6.00 Build 0)  -->
<svg version="1.1" id="Layer_1" xmlns="http://www.w3.org/2000/svg" xmlns:xlink="http://www.w3.org/1999/xlink" x="0px" y="0px"
	 viewBox="0 0 57.2 58.4" style="enable-background:new 0 0 57.2 58.4;" xml:space="preserve">
<style type="text/css">
	.st0{fill:url(#SVGID_1_);}
	.st1{clip-path:url(#SVGID_00000126302752670409441950000016494833869353190811_);}
	.st2{fill:#FFFFFF;filter:url(#Adobe_OpacityMaskFilter);}
	.st3{mask:url(#mask0_328_4041_00000142150443718446867610000014174338243841097887_);}
	.st4{fill-rule:evenodd;clip-rule:evenodd;fill:#0A0C00;}
</style>
<linearGradient id="SVGID_1_" gradientUnits="userSpaceOnUse" x1="9.7795" y1="39.3506" x2="51.3429" y2="14.5482">
	<stop  offset="0" style="stop-color:#FFFFFF"/>
	<stop  offset="1" style="stop-color:#496D94"/>
</linearGradient>
<path class="st0" d="M47.4,26.8c4-2.1,6.7-6.2,6.7-11c0-6.9-5.6-12.4-12.4-12.4C37,3.4,33,5.9,30.8,9.7C28.7,5.9,24.6,3.4,20,3.4
	c-6.9,0-12.4,5.6-12.4,12.4c0,4.8,2.7,8.9,6.7,11c-4,2.1-6.7,6.2-6.7,11c0,6.9,5.6,12.4,12.4,12.4c4.7,0,8.7-2.6,10.8-6.4
	c2.1,3.8,6.2,6.4,10.8,6.4c6.9,0,12.4-5.6,12.4-12.4C54.1,33,51.4,28.9,47.4,26.8z M30.8,31.7c-1.2-2.1-2.9-3.8-5.1-4.9
	c2.1-1.1,3.9-2.8,5.1-5c1.2,2.1,2.9,3.8,5.1,5C33.8,27.9,32,29.6,30.8,31.7z"/>
<g>
	<defs>
		<rect id="SVGID_00000080183353832760362440000001711422418995027879_" x="10.8" y="6.8" width="40" height="40"/>
	</defs>
	<clipPath id="SVGID_00000160161418962937425840000017497715298723945138_">
		<use xlink:href="#SVGID_00000080183353832760362440000001711422418995027879_"  style="overflow:visible;"/>
	</clipPath>
	<g style="clip-path:url(#SVGID_00000160161418962937425840000017497715298723945138_);">
		<defs>
			<filter id="Adobe_OpacityMaskFilter" filterUnits="userSpaceOnUse" x="10.8" y="6.8" width="40" height="40">
				<feColorMatrix  type="matrix" values="1 0 0 0 0  0 1 0 0 0  0 0 1 0 0  0 0 0 1 0"/>
			</filter>
		</defs>
		
			<mask maskUnits="userSpaceOnUse" x="10.8" y="6.8" width="40" height="40" id="mask0_328_4041_00000142150443718446867610000014174338243841097887_">
			<path class="st2" d="M50.8,6.8h-40v40h40V6.8z"/>
		</mask>
		<g class="st3">
			<path class="st4" d="M20.8,26.8c5.5,0,10-4.5,10-10c0,5.5,4.5,10,10,10c-5.5,0-10,4.5-10,10C30.8,31.3,26.4,26.8,20.8,26.8z
				 M20.8,26.8c-5.5,0-10,4.5-10,10s4.5,10,10,10c5.5,0,10-4.5,10-10c0,5.5,4.5,10,10,10s10-4.5,10-10s-4.5-10-10-10
				c5.5,0,10-4.5,10-10c0-5.5-4.5-10-10-10s-10,4.5-10,10c0-5.5-4.5-10-10-10c-5.5,0-10,4.5-10,10C10.8,22.3,15.3,26.8,20.8,26.8z"
				/>
		</g>
	</g>
</g>
</svg>
